<!--?xml version="1.0" standalone="no"?-->
<svg id="sw-js-blob-svg" viewBox="0 0 100 100" xmlns="http://www.w3.org/2000/svg" version="1.1">
    <defs> 
        <linearGradient id="sw-gradient" x1="0" x2="1" y1="1" y2="0">
            <stop id="stop1" stop-color="rgba(193, 238, 198, 1)" offset="0%"></stop>
            <stop id="stop2" stop-color="rgba(193, 238, 198, 1)" offset="100%"></stop>
        </linearGradient>
    </defs>
<path fill="url(#sw-gradient)" d="M24.3,-34C30.1,-29.2,32.4,-20.2,33.5,-12C34.6,-3.8,34.5,3.7,32.9,11.4C31.3,19,28.3,26.9,22.6,33.3C16.8,39.7,8.4,44.6,1.1,43C-6.2,41.5,-12.4,33.6,-19.7,27.7C-27.1,21.8,-35.5,18.1,-39.1,11.6C-42.8,5.1,-41.6,-4,-38.2,-11.7C-34.7,-19.4,-29,-25.7,-22.2,-30.1C-15.5,-34.6,-7.7,-37.2,0.8,-38.2C9.2,-39.3,18.5,-38.7,24.3,-34Z" width="100%" height="100%" transform="translate(50 50)" stroke-width="0" style="transition: all 0.3s ease 0s;" stroke="url(#sw-gradient)"></path>
</svg>