<svg id="visual" viewBox="0 0 960 300" width="960" height="300" xmlns="http://www.w3.org/2000/svg" xmlns:xlink="http://www.w3.org/1999/xlink" version="1.1"><path d="M0 64L17.8 61C35.7 58 71.3 52 106.8 52C142.3 52 177.7 58 213.2 55C248.7 52 284.3 40 320 35C355.7 30 391.3 32 426.8 34.5C462.3 37 497.7 40 533.2 44C568.7 48 604.3 53 640 52.5C675.7 52 711.3 46 746.8 44C782.3 42 817.7 44 853.2 47.5C888.7 51 924.3 56 942.2 58.5L960 61L960 0L942.2 0C924.3 0 888.7 0 853.2 0C817.7 0 782.3 0 746.8 0C711.3 0 675.7 0 640 0C604.3 0 568.7 0 533.2 0C497.7 0 462.3 0 426.8 0C391.3 0 355.7 0 320 0C284.3 0 248.7 0 213.2 0C177.7 0 142.3 0 106.8 0C71.3 0 35.7 0 17.8 0L0 0Z" fill="#ffffff"></path><path d="M0 115L17.8 111C35.7 107 71.3 99 106.8 103C142.3 107 177.7 123 213.2 129C248.7 135 284.3 131 320 125.5C355.7 120 391.3 113 426.8 109C462.3 105 497.7 104 533.2 113.5C568.7 123 604.3 143 640 149C675.7 155 711.3 147 746.8 142.5C782.3 138 817.7 137 853.2 141C888.7 145 924.3 154 942.2 158.5L960 163L960 59L942.2 56.5C924.3 54 888.7 49 853.2 45.5C817.7 42 782.3 40 746.8 42C711.3 44 675.7 50 640 50.5C604.3 51 568.7 46 533.2 42C497.7 38 462.3 35 426.8 32.5C391.3 30 355.7 28 320 33C284.3 38 248.7 50 213.2 53C177.7 56 142.3 50 106.8 50C71.3 50 35.7 56 17.8 59L0 62Z" fill="#f0fbf0"></path><path d="M0 172L17.8 162.5C35.7 153 71.3 134 106.8 137.5C142.3 141 177.7 167 213.2 180C248.7 193 284.3 193 320 183C355.7 173 391.3 153 426.8 146C462.3 139 497.7 145 533.2 156C568.7 167 604.3 183 640 191.5C675.7 200 711.3 201 746.8 196.5C782.3 192 817.7 182 853.2 184.5C888.7 187 924.3 202 942.2 209.5L960 217L960 161L942.2 156.5C924.3 152 888.7 143 853.2 139C817.7 135 782.3 136 746.8 140.5C711.3 145 675.7 153 640 147C604.3 141 568.7 121 533.2 111.5C497.7 102 462.3 103 426.8 107C391.3 111 355.7 118 320 123.5C284.3 129 248.7 133 213.2 127C177.7 121 142.3 105 106.8 101C71.3 97 35.7 105 17.8 109L0 113Z" fill="#e0f7e2"></path><path d="M0 196L17.8 190.5C35.7 185 71.3 174 106.8 179C142.3 184 177.7 205 213.2 217.5C248.7 230 284.3 234 320 223.5C355.7 213 391.3 188 426.8 182C462.3 176 497.7 189 533.2 202C568.7 215 604.3 228 640 234.5C675.7 241 711.3 241 746.8 234C782.3 227 817.7 213 853.2 215C888.7 217 924.3 235 942.2 244L960 253L960 215L942.2 207.5C924.3 200 888.7 185 853.2 182.5C817.7 180 782.3 190 746.8 194.5C711.3 199 675.7 198 640 189.5C604.3 181 568.7 165 533.2 154C497.7 143 462.3 137 426.8 144C391.3 151 355.7 171 320 181C284.3 191 248.7 191 213.2 178C177.7 165 142.3 139 106.8 135.5C71.3 132 35.7 151 17.8 160.5L0 170Z" fill="#d1f3d4"></path><path d="M0 301L17.8 301C35.7 301 71.3 301 106.8 301C142.3 301 177.7 301 213.2 301C248.7 301 284.3 301 320 301C355.7 301 391.3 301 426.8 301C462.3 301 497.7 301 533.2 301C568.7 301 604.3 301 640 301C675.7 301 711.3 301 746.8 301C782.3 301 817.7 301 853.2 301C888.7 301 924.3 301 942.2 301L960 301L960 251L942.2 242C924.3 233 888.7 215 853.2 213C817.7 211 782.3 225 746.8 232C711.3 239 675.7 239 640 232.5C604.3 226 568.7 213 533.2 200C497.7 187 462.3 174 426.8 180C391.3 186 355.7 211 320 221.5C284.3 232 248.7 228 213.2 215.5C177.7 203 142.3 182 106.8 177C71.3 172 35.7 183 17.8 188.5L0 194Z" fill="#c1eec6"></path></svg>