<svg id="visual" viewBox="0 0 960 150" width="960" height="150" xmlns="http://www.w3.org/2000/svg" xmlns:xlink="http://www.w3.org/1999/xlink" version="1.1"><path d="M0 42L12.3 40.5C24.7 39 49.3 36 74 35.2C98.7 34.3 123.3 35.7 148 40.2C172.7 44.7 197.3 52.3 221.8 58.8C246.3 65.3 270.7 70.7 295.2 74.2C319.7 77.7 344.3 79.3 369 72.3C393.7 65.3 418.3 49.7 443 37.8C467.7 26 492.3 18 517 23.8C541.7 29.7 566.3 49.3 591 49.8C615.7 50.3 640.3 31.7 664.8 36.3C689.3 41 713.7 69 738.2 75.5C762.7 82 787.3 67 812 52.8C836.7 38.7 861.3 25.3 886 24.2C910.7 23 935.3 34 947.7 39.5L960 45L960 0L947.7 0C935.3 0 910.7 0 886 0C861.3 0 836.7 0 812 0C787.3 0 762.7 0 738.2 0C713.7 0 689.3 0 664.8 0C640.3 0 615.7 0 591 0C566.3 0 541.7 0 517 0C492.3 0 467.7 0 443 0C418.3 0 393.7 0 369 0C344.3 0 319.7 0 295.2 0C270.7 0 246.3 0 221.8 0C197.3 0 172.7 0 148 0C123.3 0 98.7 0 74 0C49.3 0 24.7 0 12.3 0L0 0Z" fill="#6b2e48"></path><path d="M0 54L12.3 54.7C24.7 55.3 49.3 56.7 74 62C98.7 67.3 123.3 76.7 148 82.2C172.7 87.7 197.3 89.3 221.8 90.7C246.3 92 270.7 93 295.2 96C319.7 99 344.3 104 369 99.5C393.7 95 418.3 81 443 67.3C467.7 53.7 492.3 40.3 517 46.8C541.7 53.3 566.3 79.7 591 82.8C615.7 86 640.3 66 664.8 65.5C689.3 65 713.7 84 738.2 92.8C762.7 101.7 787.3 100.3 812 91.2C836.7 82 861.3 65 886 63.2C910.7 61.3 935.3 74.7 947.7 81.3L960 88L960 43L947.7 37.5C935.3 32 910.7 21 886 22.2C861.3 23.3 836.7 36.7 812 50.8C787.3 65 762.7 80 738.2 73.5C713.7 67 689.3 39 664.8 34.3C640.3 29.7 615.7 48.3 591 47.8C566.3 47.3 541.7 27.7 517 21.8C492.3 16 467.7 24 443 35.8C418.3 47.7 393.7 63.3 369 70.3C344.3 77.3 319.7 75.7 295.2 72.2C270.7 68.7 246.3 63.3 221.8 56.8C197.3 50.3 172.7 42.7 148 38.2C123.3 33.7 98.7 32.3 74 33.2C49.3 34 24.7 37 12.3 38.5L0 40Z" fill="#935d56"></path><path d="M0 120L12.3 121C24.7 122 49.3 124 74 125.5C98.7 127 123.3 128 148 127C172.7 126 197.3 123 221.8 118.8C246.3 114.7 270.7 109.3 295.2 112C319.7 114.7 344.3 125.3 369 122.3C393.7 119.3 418.3 102.7 443 100.5C467.7 98.3 492.3 110.7 517 118C541.7 125.3 566.3 127.7 591 124.3C615.7 121 640.3 112 664.8 112C689.3 112 713.7 121 738.2 123.5C762.7 126 787.3 122 812 118C836.7 114 861.3 110 886 107.3C910.7 104.7 935.3 103.3 947.7 102.7L960 102L960 86L947.7 79.3C935.3 72.7 910.7 59.3 886 61.2C861.3 63 836.7 80 812 89.2C787.3 98.3 762.7 99.7 738.2 90.8C713.7 82 689.3 63 664.8 63.5C640.3 64 615.7 84 591 80.8C566.3 77.7 541.7 51.3 517 44.8C492.3 38.3 467.7 51.7 443 65.3C418.3 79 393.7 93 369 97.5C344.3 102 319.7 97 295.2 94C270.7 91 246.3 90 221.8 88.7C197.3 87.3 172.7 85.7 148 80.2C123.3 74.7 98.7 65.3 74 60C49.3 54.7 24.7 53.3 12.3 52.7L0 52Z" fill="#ae9277"></path><path d="M0 126L12.3 129.2C24.7 132.3 49.3 138.7 74 141.7C98.7 144.7 123.3 144.3 148 144.8C172.7 145.3 197.3 146.7 221.8 141.3C246.3 136 270.7 124 295.2 123.5C319.7 123 344.3 134 369 134.8C393.7 135.7 418.3 126.3 443 125.3C467.7 124.3 492.3 131.7 517 136.7C541.7 141.7 566.3 144.3 591 141.3C615.7 138.3 640.3 129.7 664.8 129.7C689.3 129.7 713.7 138.3 738.2 141.2C762.7 144 787.3 141 812 137.7C836.7 134.3 861.3 130.7 886 129.3C910.7 128 935.3 129 947.7 129.5L960 130L960 100L947.7 100.7C935.3 101.3 910.7 102.7 886 105.3C861.3 108 836.7 112 812 116C787.3 120 762.7 124 738.2 121.5C713.7 119 689.3 110 664.8 110C640.3 110 615.7 119 591 122.3C566.3 125.7 541.7 123.3 517 116C492.3 108.7 467.7 96.3 443 98.5C418.3 100.7 393.7 117.3 369 120.3C344.3 123.3 319.7 112.7 295.2 110C270.7 107.3 246.3 112.7 221.8 116.8C197.3 121 172.7 124 148 125C123.3 126 98.7 125 74 123.5C49.3 122 24.7 120 12.3 119L0 118Z" fill="#c7c7ad"></path><path d="M0 151L12.3 151C24.7 151 49.3 151 74 151C98.7 151 123.3 151 148 151C172.7 151 197.3 151 221.8 151C246.3 151 270.7 151 295.2 151C319.7 151 344.3 151 369 151C393.7 151 418.3 151 443 151C467.7 151 492.3 151 517 151C541.7 151 566.3 151 591 151C615.7 151 640.3 151 664.8 151C689.3 151 713.7 151 738.2 151C762.7 151 787.3 151 812 151C836.7 151 861.3 151 886 151C910.7 151 935.3 151 947.7 151L960 151L960 128L947.7 127.5C935.3 127 910.7 126 886 127.3C861.3 128.7 836.7 132.3 812 135.7C787.3 139 762.7 142 738.2 139.2C713.7 136.3 689.3 127.7 664.8 127.7C640.3 127.7 615.7 136.3 591 139.3C566.3 142.3 541.7 139.7 517 134.7C492.3 129.7 467.7 122.3 443 123.3C418.3 124.3 393.7 133.7 369 132.8C344.3 132 319.7 121 295.2 121.5C270.7 122 246.3 134 221.8 139.3C197.3 144.7 172.7 143.3 148 142.8C123.3 142.3 98.7 142.7 74 139.7C49.3 136.7 24.7 130.3 12.3 127.2L0 124Z" fill="#ebfaed"></path></svg>