<svg id="visual" viewBox="0 0 960 150" width="960" height="150" xmlns="http://www.w3.org/2000/svg" xmlns:xlink="http://www.w3.org/1999/xlink" version="1.1"><path d="M0 45L14.5 42.2C29 39.3 58 33.7 87.2 36.8C116.3 40 145.7 52 174.8 57.3C204 62.7 233 61.3 262 56.7C291 52 320 44 349 37.7C378 31.3 407 26.7 436.2 30.8C465.3 35 494.7 48 523.8 51.5C553 55 582 49 611 47.5C640 46 669 49 698 46.5C727 44 756 36 785.2 30.8C814.3 25.7 843.7 23.3 872.8 25.8C902 28.3 931 35.7 945.5 39.3L960 43L960 0L945.5 0C931 0 902 0 872.8 0C843.7 0 814.3 0 785.2 0C756 0 727 0 698 0C669 0 640 0 611 0C582 0 553 0 523.8 0C494.7 0 465.3 0 436.2 0C407 0 378 0 349 0C320 0 291 0 262 0C233 0 204 0 174.8 0C145.7 0 116.3 0 87.2 0C58 0 29 0 14.5 0L0 0Z" fill="#ebfaed"></path><path d="M0 72L14.5 69.2C29 66.3 58 60.7 87.2 61.7C116.3 62.7 145.7 70.3 174.8 75.3C204 80.3 233 82.7 262 78.8C291 75 320 65 349 59.5C378 54 407 53 436.2 56C465.3 59 494.7 66 523.8 67.5C553 69 582 65 611 64.8C640 64.7 669 68.3 698 65.3C727 62.3 756 52.7 785.2 46.7C814.3 40.7 843.7 38.3 872.8 42.8C902 47.3 931 58.7 945.5 64.3L960 70L960 41L945.5 37.3C931 33.7 902 26.3 872.8 23.8C843.7 21.3 814.3 23.7 785.2 28.8C756 34 727 42 698 44.5C669 47 640 44 611 45.5C582 47 553 53 523.8 49.5C494.7 46 465.3 33 436.2 28.8C407 24.7 378 29.3 349 35.7C320 42 291 50 262 54.7C233 59.3 204 60.7 174.8 55.3C145.7 50 116.3 38 87.2 34.8C58 31.7 29 37.3 14.5 40.2L0 43Z" fill="#c7c7ad"></path><path d="M0 93L14.5 88.7C29 84.3 58 75.7 87.2 76.8C116.3 78 145.7 89 174.8 95.8C204 102.7 233 105.3 262 100.7C291 96 320 84 349 78C378 72 407 72 436.2 74.7C465.3 77.3 494.7 82.7 523.8 85C553 87.3 582 86.7 611 85.5C640 84.3 669 82.7 698 78.3C727 74 756 67 785.2 63.2C814.3 59.3 843.7 58.7 872.8 62.2C902 65.7 931 73.3 945.5 77.2L960 81L960 68L945.5 62.3C931 56.7 902 45.3 872.8 40.8C843.7 36.3 814.3 38.7 785.2 44.7C756 50.7 727 60.3 698 63.3C669 66.3 640 62.7 611 62.8C582 63 553 67 523.8 65.5C494.7 64 465.3 57 436.2 54C407 51 378 52 349 57.5C320 63 291 73 262 76.8C233 80.7 204 78.3 174.8 73.3C145.7 68.3 116.3 60.7 87.2 59.7C58 58.7 29 64.3 14.5 67.2L0 70Z" fill="#ae9277"></path><path d="M0 127L14.5 119.8C29 112.7 58 98.3 87.2 98.2C116.3 98 145.7 112 174.8 119.5C204 127 233 128 262 124.2C291 120.3 320 111.7 349 104.2C378 96.7 407 90.3 436.2 93.3C465.3 96.3 494.7 108.7 523.8 111.8C553 115 582 109 611 107C640 105 669 107 698 106.3C727 105.7 756 102.3 785.2 100.3C814.3 98.3 843.7 97.7 872.8 97.7C902 97.7 931 98.3 945.5 98.7L960 99L960 79L945.5 75.2C931 71.3 902 63.7 872.8 60.2C843.7 56.7 814.3 57.3 785.2 61.2C756 65 727 72 698 76.3C669 80.7 640 82.3 611 83.5C582 84.7 553 85.3 523.8 83C494.7 80.7 465.3 75.3 436.2 72.7C407 70 378 70 349 76C320 82 291 94 262 98.7C233 103.3 204 100.7 174.8 93.8C145.7 87 116.3 76 87.2 74.8C58 73.7 29 82.3 14.5 86.7L0 91Z" fill="#935d56"></path><path d="M0 151L14.5 151C29 151 58 151 87.2 151C116.3 151 145.7 151 174.8 151C204 151 233 151 262 151C291 151 320 151 349 151C378 151 407 151 436.2 151C465.3 151 494.7 151 523.8 151C553 151 582 151 611 151C640 151 669 151 698 151C727 151 756 151 785.2 151C814.3 151 843.7 151 872.8 151C902 151 931 151 945.5 151L960 151L960 97L945.5 96.7C931 96.3 902 95.7 872.8 95.7C843.7 95.7 814.3 96.3 785.2 98.3C756 100.3 727 103.7 698 104.3C669 105 640 103 611 105C582 107 553 113 523.8 109.8C494.7 106.7 465.3 94.3 436.2 91.3C407 88.3 378 94.7 349 102.2C320 109.7 291 118.3 262 122.2C233 126 204 125 174.8 117.5C145.7 110 116.3 96 87.2 96.2C58 96.3 29 110.7 14.5 117.8L0 125Z" fill="#6b2e48"></path></svg>