<svg id="visual" viewBox="0 0 960 200" width="960" height="200" xmlns="http://www.w3.org/2000/svg" xmlns:xlink="http://www.w3.org/1999/xlink" version="1.1"><path d="M0 59L17.8 71C35.7 83 71.3 107 106.8 112.3C142.3 117.7 177.7 104.3 213.2 94.3C248.7 84.3 284.3 77.7 320 67C355.7 56.3 391.3 41.7 426.8 42.7C462.3 43.7 497.7 60.3 533.2 72.3C568.7 84.3 604.3 91.7 640 90.7C675.7 89.7 711.3 80.3 746.8 75C782.3 69.7 817.7 68.3 853.2 62.3C888.7 56.3 924.3 45.7 942.2 40.3L960 35L960 0L942.2 0C924.3 0 888.7 0 853.2 0C817.7 0 782.3 0 746.8 0C711.3 0 675.7 0 640 0C604.3 0 568.7 0 533.2 0C497.7 0 462.3 0 426.8 0C391.3 0 355.7 0 320 0C284.3 0 248.7 0 213.2 0C177.7 0 142.3 0 106.8 0C71.3 0 35.7 0 17.8 0L0 0Z" fill="#c1eec6"></path><path d="M0 69L17.8 82.3C35.7 95.7 71.3 122.3 106.8 131.7C142.3 141 177.7 133 213.2 122.7C248.7 112.3 284.3 99.7 320 87.3C355.7 75 391.3 63 426.8 66.3C462.3 69.7 497.7 88.3 533.2 99.7C568.7 111 604.3 115 640 117C675.7 119 711.3 119 746.8 114.3C782.3 109.7 817.7 100.3 853.2 89.7C888.7 79 924.3 67 942.2 61L960 55L960 33L942.2 38.3C924.3 43.7 888.7 54.3 853.2 60.3C817.7 66.3 782.3 67.7 746.8 73C711.3 78.3 675.7 87.7 640 88.7C604.3 89.7 568.7 82.3 533.2 70.3C497.7 58.3 462.3 41.7 426.8 40.7C391.3 39.7 355.7 54.3 320 65C284.3 75.7 248.7 82.3 213.2 92.3C177.7 102.3 142.3 115.7 106.8 110.3C71.3 105 35.7 81 17.8 69L0 57Z" fill="#d6f4d9"></path><path d="M0 83L17.8 97C35.7 111 71.3 139 106.8 153.7C142.3 168.3 177.7 169.7 213.2 162.3C248.7 155 284.3 139 320 124.3C355.7 109.7 391.3 96.3 426.8 103.3C462.3 110.3 497.7 137.7 533.2 152.7C568.7 167.7 604.3 170.3 640 166C675.7 161.7 711.3 150.3 746.8 147.3C782.3 144.3 817.7 149.7 853.2 141C888.7 132.3 924.3 109.7 942.2 98.3L960 87L960 53L942.2 59C924.3 65 888.7 77 853.2 87.7C817.7 98.3 782.3 107.7 746.8 112.3C711.3 117 675.7 117 640 115C604.3 113 568.7 109 533.2 97.7C497.7 86.3 462.3 67.7 426.8 64.3C391.3 61 355.7 73 320 85.3C284.3 97.7 248.7 110.3 213.2 120.7C177.7 131 142.3 139 106.8 129.7C71.3 120.3 35.7 93.7 17.8 80.3L0 67Z" fill="#eafaec"></path><path d="M0 201L17.8 201C35.7 201 71.3 201 106.8 201C142.3 201 177.7 201 213.2 201C248.7 201 284.3 201 320 201C355.7 201 391.3 201 426.8 201C462.3 201 497.7 201 533.2 201C568.7 201 604.3 201 640 201C675.7 201 711.3 201 746.8 201C782.3 201 817.7 201 853.2 201C888.7 201 924.3 201 942.2 201L960 201L960 85L942.2 96.3C924.3 107.7 888.7 130.3 853.2 139C817.7 147.7 782.3 142.3 746.8 145.3C711.3 148.3 675.7 159.7 640 164C604.3 168.3 568.7 165.7 533.2 150.7C497.7 135.7 462.3 108.3 426.8 101.3C391.3 94.3 355.7 107.7 320 122.3C284.3 137 248.7 153 213.2 160.3C177.7 167.7 142.3 166.3 106.8 151.7C71.3 137 35.7 109 17.8 95L0 81Z" fill="#ffffff"></path></svg>