<svg version="1.1" style="font-family: Roboto; font-size: 12px;" xmlns="http://www.w3.org/2000/svg" width="650" height="500" viewBox="0 0 650 500" aria-hidden="false" aria-label="Interactive chart"><defs aria-hidden="true"><clipPath ><rect x="0" y="0" width="630" height="411" fill="none"></rect></clipPath><clipPath ><rect x="0" y="0" width="630" height="411" fill="none"></rect></clipPath></defs><rect fill="#ffffff" x="0" y="0" width="650" height="500" rx="0" ry="0" aria-hidden="true"></rect><rect fill="none" x="10" y="74" width="630" height="411" aria-hidden="true"></rect><g data-z-index="0" aria-hidden="true"></g><rect fill="none" data-z-index="1" x="10" y="74" width="630" height="411" aria-hidden="true"></rect><g data-z-index="1" aria-hidden="true"></g><g data-z-index="1" aria-hidden="true"></g><g data-z-index="2" aria-hidden="true"><path fill="none" data-z-index="7" d="M 10 485 L 640 485"></path></g><g data-z-index="2" aria-hidden="true"><path fill="none" data-z-index="7" d="M 10 74 L 10 485"></path></g><g data-z-index="3" aria-hidden="false"><g data-z-index="0.1" transform="translate(10,74) scale(1 1)" clip-path="url(#highcharts-e5gogjv-8-)" opacity="1" style="cursor: pointer;" aria-hidden="false"><path fill="#29AEF6" d="M 315 10.000000000000028 A 195.49999999999997 195.49999999999997 0 0 1 409.0977137069186 34.135271204571495 L 377.7318091379458 91.25684746971433 A 130.33333333333331 130.33333333333331 0 0 0 315 75.16666666666669 Z" stroke="#e6e6e6" stroke-width="1" opacity="1" tabindex="-1" style="outline: none;" role="img" aria-label="Southern Asia, value: 80. Root."></path><path fill="#29AEF6" d="M 409.26903135830037 34.22945458495272 A 195.49999999999997 195.49999999999997 0 0 1 474.589355099171 92.57751446664528 L 421.39290339944733 130.21834297776354 A 130.33333333333331 130.33333333333331 0 0 0 377.8460209055336 91.31963638996848 Z" stroke="#e6e6e6" stroke-width="1" opacity="1" tabindex="-1" style="outline: none;" role="img" aria-label="Eastern Asia, value: 72. Root."></path><path fill="#29AEF6" d="M 474.70219777121304 92.7371602563843 A 195.49999999999997 195.49999999999997 0 0 1 507.05119891242305 168.94063736467908 L 443.03413260828205 181.12709157645273 A 130.33333333333331 130.33333333333331 0 0 0 421.4681318474753 130.3247735042562 Z" stroke="#e6e6e6" stroke-width="1" opacity="1" tabindex="-1" style="outline: none;" role="img" aria-label="South-Eastern Asia, value: 68. Root."></path><path fill="rgb(41,174,246)" d="M 507.0876622433737 169.13270681126278 A 195.49999999999997 195.49999999999997 0 0 1 499.29523269206936 270.7343253738092 L 437.8634884613796 248.98955024920613 A 130.33333333333331 130.33333333333331 0 0 0 443.0584414955825 181.25513787417518 Z" stroke="rgb(230,230,230)" stroke-width="1" opacity="1" tabindex="-1" style="outline: none;" role="img" aria-label="Western Asia, value: 84. Root."></path><path fill="rgb(41,174,246)" d="M 499.2299062299593 270.91858795862544 A 195.49999999999997 195.49999999999997 0 0 1 436.52976216354296 358.6364323355898 L 396.01984144236195 307.5909548903932 A 130.33333333333331 130.33333333333331 0 0 0 437.8199374866395 249.11239197241696 Z" stroke="rgb(230,230,230)" stroke-width="1" opacity="1" tabindex="-1" style="outline: none;" role="img" aria-label="Central Asia, value: 89. Root."></path><path fill="#0580C3" d="M 315 75.16666666666669 A 130.33333333333331 130.33333333333331 0 0 1 396.019841442362 307.59095489039316 L 355.509920721181 256.5454774451966 A 65.16666666666666 65.16666666666666 0 0 0 315 140.33333333333334 Z" stroke="#e6e6e6" stroke-width="1" opacity="1" tabindex="-1" style="outline: none;" role="img" aria-label="Asia, value: 393. Root."></path><path fill="#29d8cb" d="M 436.37656499185414 358.7578855092886 A 195.49999999999997 195.49999999999997 0 0 1 356.07840398915283 396.63559251406826 L 342.3856026594352 332.92372834271214 A 130.33333333333331 130.33333333333331 0 0 0 395.9177099945694 307.67192367285907 Z" stroke="#e6e6e6" stroke-width="1" opacity="1" tabindex="-1" style="outline: none;" role="img" aria-label="Eastern Africa, value: 73. Root."></path><path fill="#29d8cb" d="M 355.88724788929443 396.6765753434227 A 195.49999999999997 195.49999999999997 0 0 1 294.94258128745264 399.96837777538417 L 301.62838752496845 335.14558518358945 A 130.33333333333331 130.33333333333331 0 0 0 342.2581652595296 332.9510502289485 Z" stroke="#e6e6e6" stroke-width="1" opacity="1" tabindex="-1" style="outline: none;" role="img" aria-label="Western Africa, value: 50. Root."></path><path fill="#29d8cb" d="M 294.7481229707972 399.9482231258338 A 195.49999999999997 195.49999999999997 0 0 1 210.8372506661068 370.93993366537757 L 245.55816711073786 315.7932891102517 A 130.33333333333331 130.33333333333331 0 0 0 301.49874864719817 335.13214875055587 Z" stroke="#e6e6e6" stroke-width="1" opacity="1" tabindex="-1" style="outline: none;" role="img" aria-label="North Africa, value: 73. Root."></path><path fill="#29d8cb" d="M 210.6718628413851 370.8356882134442 A 195.49999999999997 195.49999999999997 0 0 1 198.65926734445856 362.61487493287143 L 237.43951156297237 310.2432499552476 A 130.33333333333331 130.33333333333331 0 0 0 245.4479085609234 315.72379214229613 Z" stroke="#e6e6e6" stroke-width="1" opacity="1" tabindex="-1" style="outline: none;" role="img" aria-label="Central Africa, value: 12. Root."></path><path fill="#29d8cb" d="M 198.50221066607298 362.49845566217505 A 195.49999999999997 195.49999999999997 0 0 1 183.46379621461108 350.1322131951545 L 227.3091974764074 301.92147546343637 A 130.33333333333331 130.33333333333331 0 0 0 237.33480711071533 310.1656371081167 Z" stroke="#e6e6e6" stroke-width="1" opacity="1" tabindex="-1" style="outline: none;" role="img" aria-label="South Africa, value: 16. Root."></path><path fill="#08A296" d="M 395.9177099945694 307.67192367285907 A 130.33333333333331 130.33333333333331 0 0 1 227.3091974764074 301.92147546343637 L 271.1545987382037 253.71073773171818 A 65.16666666666666 65.16666666666666 0 0 0 355.45885499728473 256.58596183642953 Z" stroke="#e6e6e6" stroke-width="1" opacity="1" tabindex="-1" style="outline: none;" role="img" aria-label="Africa, value: 224. Root."></path><path fill="#B2E937" d="M 183.31922979361772 350.0006046971913 A 195.49999999999997 195.49999999999997 0 0 1 170.42404902588618 337.0980410185905 L 218.61603268392412 293.232027345727 A 130.33333333333331 130.33333333333331 0 0 0 227.21281986241183 301.8337364647942 Z" stroke="#e6e6e6" stroke-width="1" opacity="1" tabindex="-1" style="outline: none;" role="img" aria-label="South America, value: 15. Root."></path><path fill="#B2E937" d="M 170.29252329477006 336.9533992926973 A 195.49999999999997 195.49999999999997 0 0 1 122.8347813146161 241.45523227012407 L 186.88985420974407 229.47015484674938 A 130.33333333333331 130.33333333333331 0 0 0 218.52834886318004 293.1355995284649 Z" stroke="#e6e6e6" stroke-width="1" opacity="1" tabindex="-1" style="outline: none;" role="img" aria-label="Northern America, value: 88. Root."></path><path fill="#B2E937" d="M 122.79892217093985 241.26304910585162 A 195.49999999999997 195.49999999999997 0 0 1 137.92923730345072 122.63749341190356 L 196.95282486896716 150.25832894126904 A 130.33333333333331 130.33333333333331 0 0 0 186.8659481139599 229.3420327372344 Z" stroke="#e6e6e6" stroke-width="1" opacity="1" tabindex="-1" style="outline: none;" role="img" aria-label="Central America, value: 99. Root."></path><path fill="#91C222" d="M 227.21281986241183 301.8337364647942 A 130.33333333333331 130.33333333333331 0 0 1 196.95282486896716 150.25832894126904 L 255.97641243448356 177.87916447063452 A 65.16666666666666 65.16666666666666 0 0 0 271.1064099312059 253.6668682323971 Z" stroke="#e6e6e6" stroke-width="1" opacity="1" tabindex="-1" style="outline: none;" role="img" aria-label="America, value: 202. Root."></path><path fill="#FFBB43" d="M 138.01218833160237 122.46046410996867 A 195.49999999999997 195.49999999999997 0 0 1 148.42363475325217 103.16445123427513 L 203.94908983550144 137.2763008228501 A 130.33333333333331 130.33333333333331 0 0 0 197.00812555440157 150.14030940664577 Z" stroke="#e6e6e6" stroke-width="1" opacity="1" tabindex="-1" style="outline: none;" role="img" aria-label="Eastern Europe, value: 18. Root."></path><path fill="#FFBB43" d="M 148.52605357313763 102.99792606456127 A 195.49999999999997 195.49999999999997 0 0 1 172.24361712822358 71.93029853530868 L 219.82907808548237 116.45353235687244 A 130.33333333333331 130.33333333333331 0 0 0 204.01736904875844 137.16528404304086 Z" stroke="#e6e6e6" stroke-width="1" opacity="1" tabindex="-1" style="outline: none;" role="img" aria-label="Northern Europe, value: 32. Root."></path><path fill="#FFBB43" d="M 172.3772581856121 71.7876089610748 A 195.49999999999997 195.49999999999997 0 0 1 246.22186846334287 22.497763340645804 L 269.14791230889523 83.49850889376387 A 130.33333333333331 130.33333333333331 0 0 0 219.9181721237414 116.35840597404986 Z" stroke="#e6e6e6" stroke-width="1" opacity="1" tabindex="-1" style="outline: none;" role="img" aria-label="Southern Europe, value: 73. Root."></path><path fill="#FFBB43" d="M 246.40490505856482 22.42907672168286 A 195.49999999999997 195.49999999999997 0 0 1 290.27901205520243 11.569283621616137 L 298.51934137013495 76.2128557477441 A 130.33333333333331 130.33333333333331 0 0 0 269.2699367057099 83.45271781445524 Z" stroke="#e6e6e6" stroke-width="1" opacity="1" tabindex="-1" style="outline: none;" role="img" aria-label="Western Europe, value: 37. Root."></path><path fill="#FE9F01" d="M 197.00812555440157 150.14030940664577 A 130.33333333333331 130.33333333333331 0 0 1 298.51934137013495 76.2128557477441 L 306.7596706850675 140.85642787387206 A 65.16666666666666 65.16666666666666 0 0 0 256.0040627772008 177.82015470332288 Z" stroke="#e6e6e6" stroke-width="1" opacity="1" tabindex="-1" style="outline: none;" role="img" aria-label="Europe, value: 160. Root."></path><path fill="#FD6A4C" d="M 290.4729550997521 11.54465960314161 A 195.49999999999997 195.49999999999997 0 0 1 314.80450003258323 10.00009774999188 L 314.8696666883888 75.16673183332793 A 130.33333333333331 130.33333333333331 0 0 0 298.648636733168 76.19643973542773 Z" stroke="#e6e6e6" stroke-width="1" opacity="1" tabindex="-1" style="outline: none;" role="img" aria-label="Australia, value: 20. Root."></path><path fill="#E42701" d="M 298.648636733168 76.19643973542773 A 130.33333333333331 130.33333333333331 0 0 1 314.8696666883888 75.16673183332793 L 314.93483334419443 140.33336591666398 A 65.16666666666666 65.16666666666666 0 0 0 306.824318366584 140.84821986771385 Z" stroke="#e6e6e6" stroke-width="1" opacity="1" tabindex="-1" style="outline: none;" role="img" aria-label="Oceanic, value: 20. Root."></path><path fill="#FFFFFF" d="M 315 140.33333333333334 A 65.16666666666666 65.16666666666666 0 1 1 314.93483334419443 140.33336591666398 M 315 205.5 A 0 0 0 1 0 315 205.5" stroke="#e6e6e6" stroke-width="1" opacity="1" tabindex="-1" style="outline: none;" role="img" aria-label="The World, value: 999. Root."></path></g><g data-z-index="0.1" transform="translate(10,74) scale(1 1)" clip-path="none" aria-hidden="true"></g></g><g data-z-index="3" aria-hidden="true"><g stroke-linecap="round" style="cursor: pointer;" transform="translate(616,10)"><title>Chart context menu</title><rect fill="#ffffff" x="0.5" y="0.5" width="24" height="22" rx="2" ry="2" stroke="none" stroke-width="1"></rect><path fill="#666666" d="M 6 6.5 L 20 6.5 M 6 11.5 L 20 11.5 M 6 16.5 L 20 16.5" data-z-index="1" stroke="#666666" stroke-width="3"></path><text font-family='Roboto-Regular,Roboto' x="0" data-z-index="1" y="15.5" style="color: rgb(51, 51, 51); font-weight: normal; fill: rgb(51, 51, 51);"></text></g></g><text font-family='Roboto-Regular,Roboto' x="325" text-anchor="middle" data-z-index="4" style="color: rgb(51, 51, 51); font-size: 18px; fill: rgb(51, 51, 51);" y="24" aria-hidden="true">Chart title</text><text font-family='Roboto-Regular,Roboto' x="325" text-anchor="middle" data-z-index="4" style="color: rgb(102, 102, 102); fill: rgb(102, 102, 102);" y="46" aria-hidden="true"></text><text font-family='Roboto-Regular,Roboto' x="10" text-anchor="start" data-z-index="4" style="color: rgb(102, 102, 102); fill: rgb(102, 102, 102);" y="497" aria-hidden="true"></text><g data-z-index="6" transform="translate(10,74) scale(1 1)" opacity="1" style="cursor: pointer;" aria-hidden="true"><text font-family='Roboto-Regular,Roboto' x="354.64266854885244" r="0" padding="5" data-z-index="1" transform="translate(0,0) rotate(14.41441441441441 354.64266854885244 49)" style="font-size: 11px; font-weight: bold; color: rgb(0, 0, 0); cursor: pointer; fill: rgb(0, 0, 0);" text-anchor="middle" y="49"><title>Southern Asia</title>Southern A…</text><text font-family='Roboto-Regular,Roboto' x="426.326402664229" r="0" padding="5" data-z-index="1" transform="translate(0,0) rotate(-48.19819819819819 426.326402664229 87)" style="font-size: 11px; font-weight: bold; color: rgb(0, 0, 0); cursor: pointer; fill: rgb(0, 0, 0);" text-anchor="middle" y="87"><title>Eastern Asia</title>Eastern …</text><text font-family='Roboto-Regular,Roboto' x="466.4266817238379" r="0" padding="5" data-z-index="1" transform="translate(0,0) rotate(-22.972972972972958 466.4266817238379 146)" style="font-size: 11px; font-weight: bold; color: rgb(0, 0, 0); cursor: pointer; fill: rgb(0, 0, 0);" text-anchor="middle" y="146"><title>South-Eastern Asia</title>South-E…</text><text font-family='Roboto-Regular,Roboto' x="481.08915051146676" r="0" padding="5" data-z-index="1" transform="translate(0,0) rotate(-85.58558558558556 481.08915051146676 222)" style="font-size: 11px; font-weight: bold; color: rgb(0, 0, 0); cursor: pointer; fill: rgb(0, 0, 0);" text-anchor="middle" y="222" opacity="1">Western Asia</text><text font-family='Roboto-Regular,Roboto' x="450.4734269385201" r="0" padding="5" data-z-index="1" transform="translate(0,0) rotate(-54.41441441441439 450.4734269385201 304)" style="font-size: 11px; font-weight: bold; color: rgb(0, 0, 0); cursor: pointer; fill: rgb(0, 0, 0);" text-anchor="middle" y="304" opacity="1">Central Asia</text><text font-family='Roboto-Regular,Roboto' x="403.85591330624635" r="0" padding="5" data-z-index="1" transform="translate(0,0) rotate(70.8108108108108 403.85591330624635 177)" style="font-size: 11px; font-weight: bold; color: rgb(0, 0, 0); cursor: pointer; fill: rgb(0, 0, 0);" text-anchor="middle" y="177" opacity="1">Asia</text><text font-family='Roboto-Regular,Roboto' x="381.1144244796993" r="0" padding="5" data-z-index="1" transform="translate(0,0) rotate(64.77477477477477 381.1144244796993 355)" style="font-size: 11px; font-weight: bold; color: rgb(0, 0, 0); cursor: pointer; fill: rgb(0, 0, 0);" text-anchor="middle" y="355"><title>Eastern Africa</title>Eastern …</text><text font-family='Roboto-Regular,Roboto' x="320.04403594314664" r="0" padding="5" data-z-index="1" transform="translate(0,0) rotate(86.93693693693695 320.04403594314664 368)" style="font-size: 11px; font-weight: bold; color: rgb(0, 0, 0); cursor: pointer; fill: rgb(0, 0, 0);" text-anchor="middle" y="368"><title>Western Africa</title>Western…</text><text font-family='Roboto-Regular,Roboto' x="265.1580028030006" r="0" padding="5" data-z-index="1" transform="translate(0,0) rotate(-70.9009009009009 265.1580028030006 361)" style="font-size: 11px; font-weight: bold; color: rgb(0, 0, 0); cursor: pointer; fill: rgb(0, 0, 0);" text-anchor="middle" y="361"><title>North Africa</title>North Af…</text><text font-family='Roboto-Regular,Roboto' x="225.94853840504936" r="0" padding="5" data-z-index="1" transform="translate(0,0) rotate(-55.58558558558559 225.94853840504936 342)" style="font-size: 11px; font-weight: bold; color: rgb(0, 0, 0); cursor: pointer; fill: rgb(0, 0, 0);" text-anchor="middle" y="342"><title>Central Africa</title>Central …</text><text font-family='Roboto-Regular,Roboto' x="214.29217069187274" r="0" padding="5" data-z-index="1" transform="translate(0,0) rotate(-50.54054054054052 214.29217069187274 334)" style="font-size: 11px; font-weight: bold; color: rgb(0, 0, 0); cursor: pointer; fill: rgb(0, 0, 0);" text-anchor="middle" y="334"><title>South Africa</title>South A…</text><text font-family='Roboto-Regular,Roboto' x="311.4924830006682" r="0" padding="5" data-z-index="1" transform="translate(0,0) rotate(1.9819819819819884 311.4924830006682 303)" style="font-size: 11px; font-weight: bold; color: rgb(0, 0, 0); cursor: pointer; fill: rgb(0, 0, 0);" text-anchor="middle" y="303">Africa</text><text font-family='Roboto-Regular,Roboto' x="202.30067351833145" r="0" padding="5" data-z-index="1" transform="translate(0,0) rotate(-44.95495495495496 202.30067351833145 323)" style="font-size: 11px; font-weight: bold; color: rgb(0, 0, 0); cursor: pointer; fill: rgb(0, 0, 0);" text-anchor="middle" y="323"><title>South America</title>South A…</text><text font-family='Roboto-Regular,Roboto' x="165.78469102943126" r="0" padding="5" data-z-index="1" transform="translate(0,0) rotate(63.60360360360363 165.78469102943126 282)" style="font-size: 11px; font-weight: bold; color: rgb(0, 0, 0); cursor: pointer; fill: rgb(0, 0, 0);" text-anchor="middle" y="282"><title>Northern America</title>Northern Am…</text><text font-family='Roboto-Regular,Roboto' x="157.0398556850239" r="0" padding="5" data-z-index="1" transform="translate(0,0) rotate(-82.70270270270268 157.0398556850239 189)" style="font-size: 11px; font-weight: bold; color: rgb(0, 0, 0); cursor: pointer; fill: rgb(0, 0, 0);" text-anchor="middle" y="189">Central America</text><text font-family='Roboto-Regular,Roboto' x="215.53591681193433" r="0" padding="5" data-z-index="1" transform="translate(0,0) rotate(78.73873873873873 215.53591681193433 229)" style="font-size: 11px; font-weight: bold; color: rgb(0, 0, 0); cursor: pointer; fill: rgb(0, 0, 0);" text-anchor="middle" y="229">America</text><text font-family='Roboto-Regular,Roboto' x="169.91861752851608" r="0" padding="5" data-z-index="1" transform="translate(0,0) rotate(28.378378378378386 169.91861752851608 132)" style="font-size: 11px; font-weight: bold; color: rgb(0, 0, 0); cursor: pointer; fill: rgb(0, 0, 0);" text-anchor="middle" y="132"><title>Eastern Europe</title>Eastern …</text><text font-family='Roboto-Regular,Roboto' x="183.32843534040884" r="0" padding="5" data-z-index="1" transform="translate(0,0) rotate(37.38738738738738 183.32843534040884 110)" style="font-size: 11px; font-weight: bold; color: rgb(0, 0, 0); cursor: pointer; fill: rgb(0, 0, 0);" text-anchor="middle" y="110"><title>Northern Europe</title>Norther…</text><text font-family='Roboto-Regular,Roboto' x="221.57079178945168" r="0" padding="5" data-z-index="1" transform="translate(0,0) rotate(56.30630630630631 221.57079178945168 72)" style="font-size: 11px; font-weight: bold; color: rgb(0, 0, 0); cursor: pointer; fill: rgb(0, 0, 0);" text-anchor="middle" y="72"><title>Southern Europe</title>Souther…</text><text font-family='Roboto-Regular,Roboto' x="272.375269559652" r="0" padding="5" data-z-index="1" transform="translate(0,0) rotate(76.12612612612617 272.375269559652 48)" style="font-size: 11px; font-weight: bold; color: rgb(0, 0, 0); cursor: pointer; fill: rgb(0, 0, 0);" text-anchor="middle" y="48"><title>Western Europe</title>Western…</text><text font-family='Roboto-Regular,Roboto' x="259.6513427740243" r="0" padding="5" data-z-index="1" transform="translate(0,0) rotate(-36.03603603603605 259.6513427740243 129)" style="font-size: 11px; font-weight: bold; color: rgb(0, 0, 0); cursor: pointer; fill: rgb(0, 0, 0);" text-anchor="middle" y="129">Europe</text><text font-family='Roboto-Regular,Roboto' x="301.1007346469649" r="0" padding="5" data-z-index="1" transform="translate(0,0) rotate(86.39639639639637 301.1007346469649 43)" style="font-size: 11px; font-weight: bold; color: rgb(0, 0, 0); cursor: pointer; fill: rgb(0, 0, 0);" text-anchor="middle" y="43">Australia</text><text font-family='Roboto-Regular,Roboto' x="305.196674048197" r="0" padding="5" data-z-index="1" transform="translate(0,0) rotate(86.39639639639637 305.196674048197 108)" style="font-size: 11px; font-weight: bold; color: rgb(0, 0, 0); cursor: pointer; fill: rgb(0, 0, 0);" text-anchor="middle" y="108">Oceanic</text><text font-family='Roboto-Regular,Roboto' x="314.9999360045941" r="0" padding="5" data-z-index="1" transform="translate(0,0) rotate(0.001 314.9999360045941 206)" style="font-size: 11px; font-weight: bold; color: rgb(0, 0, 0); cursor: pointer; fill: rgb(0, 0, 0);" text-anchor="middle" y="206">The World</text></g><g data-z-index="7" aria-hidden="true"></g><g data-z-index="7" aria-hidden="true"></g><g data-z-index="7" transform="translate(10,47)" aria-hidden="true"><g transform="translate(40,5)"><text font-family='Roboto-Regular,Roboto' x="3" data-z-index="1" y="15" style="color: rgb(102, 102, 102); fill: rgb(102, 102, 102);">/</text></g><g data-z-index="7" style="cursor: pointer;" transform="translate(5,5)"><rect fill="none" x="0" y="0" width="30" height="22" rx="2" ry="2"></rect><text font-family='Roboto-Regular,Roboto' x="2" data-z-index="1" y="15.5" style="color: rgb(51, 92, 173); font-weight: normal; fill: rgb(51, 92, 173);">Root</text></g><g data-z-index="7" style="cursor: pointer;" transform="translate(57,5)"><rect fill="none" x="0" y="0" width="62" height="22" rx="2" ry="2"></rect><text font-family='Roboto-Regular,Roboto' x="2" data-z-index="1" y="15.5" style="color: rgb(0, 0, 0); font-weight: bold; fill: rgb(0, 0, 0);">The World</text></g></g></svg>