<svg id="visual" viewBox="0 0 960 200" width="960" height="200" xmlns="http://www.w3.org/2000/svg" xmlns:xlink="http://www.w3.org/1999/xlink" version="1.1"><path d="M0 37L32 37C64 37 128 37 192 34.7C256 32.3 320 27.7 384 25C448 22.3 512 21.7 576 25.3C640 29 704 37 768 38.3C832 39.7 896 34.3 928 31.7L960 29L960 0L928 0C896 0 832 0 768 0C704 0 640 0 576 0C512 0 448 0 384 0C320 0 256 0 192 0C128 0 64 0 32 0L0 0Z" fill="#ffffff"></path><path d="M0 109L32 109C64 109 128 109 192 101.7C256 94.3 320 79.7 384 74C448 68.3 512 71.7 576 77C640 82.3 704 89.7 768 91.3C832 93 896 89 928 87L960 85L960 27L928 29.7C896 32.3 832 37.7 768 36.3C704 35 640 27 576 23.3C512 19.7 448 20.3 384 23C320 25.7 256 30.3 192 32.7C128 35 64 35 32 35L0 35Z" fill="#eafaec"></path><path d="M0 145L32 145.7C64 146.3 128 147.7 192 144C256 140.3 320 131.7 384 123.7C448 115.7 512 108.3 576 111C640 113.7 704 126.3 768 131.3C832 136.3 896 133.7 928 132.3L960 131L960 83L928 85C896 87 832 91 768 89.3C704 87.7 640 80.3 576 75C512 69.7 448 66.3 384 72C320 77.7 256 92.3 192 99.7C128 107 64 107 32 107L0 107Z" fill="#d6f4d9"></path><path d="M0 201L32 201C64 201 128 201 192 201C256 201 320 201 384 201C448 201 512 201 576 201C640 201 704 201 768 201C832 201 896 201 928 201L960 201L960 129L928 130.3C896 131.7 832 134.3 768 129.3C704 124.3 640 111.7 576 109C512 106.3 448 113.7 384 121.7C320 129.7 256 138.3 192 142C128 145.7 64 144.3 32 143.7L0 143Z" fill="#c1eec6"></path></svg>